<svg xmlns="http://www.w3.org/2000/svg" viewBox="0 0 24 24" width="20px">
  <path fill="#ffffff" d="M3 3h3v18H3zM18 3h3v18h-3zM9.84 7.319c.806-.805 2.202-.805 3.008 0L12 8.414l-.828-.828c-.806-.805-2.202-.805-3.008 0L9.84 7.32zM12 13.171l1.414-1.414c.806-.805 2.202-.805 3.008 0L21 16.757V7.243l-4.578-4.578c-.806-.805-2.202-.805-3.008 0L12 6.828l.828.828c.806.805 2.202.805 3.008 0L18.172 8.83c1.393 1.394 1.393 3.654 0 5.048l-6.344 6.344c-.806.805-2.202.805-3.008 0L3 12.828v8.344l4.578 4.578c.806.805 2.202.805 3.008 0l6.344-6.344c.56-.561.875-1.305.875-2.048s-.315-1.487-.875-2.048l-1.414-1.414-1.414 1.414c-.56.561-1.305.875-2.048.875s-1.487-.314-2.048-.875L6.422 13.17 12 13.171z"/>
</svg>

